<?xml version="1.0" encoding="UTF-8" standalone="no"?>
<svg
   xmlns:dc="http://purl.org/dc/elements/1.1/"
   xmlns:cc="http://creativecommons.org/ns#"
   xmlns:rdf="http://www.w3.org/1999/02/22-rdf-syntax-ns#"
   xmlns:svg="http://www.w3.org/2000/svg"
   xmlns="http://www.w3.org/2000/svg"
   xmlns:sodipodi="http://sodipodi.sourceforge.net/DTD/sodipodi-0.dtd"
   xmlns:inkscape="http://www.inkscape.org/namespaces/inkscape"
   width="35.433071"
   height="35.433071"
   version="1.1"
   id="svg2"
   inkscape:version="0.48.5 r10040"
   sodipodi:docname="close.svg">
  <metadata
     id="metadata12">
    <rdf:RDF>
      <cc:Work
         rdf:about="">
        <dc:format>image/svg+xml</dc:format>
        <dc:type
           rdf:resource="http://purl.org/dc/dcmitype/StillImage" />
      </cc:Work>
    </rdf:RDF>
  </metadata>
  <defs
     id="defs10" />
  <sodipodi:namedview
     pagecolor="#ffffff"
     bordercolor="#666666"
     borderopacity="1"
     objecttolerance="10"
     gridtolerance="10"
     guidetolerance="10"
     inkscape:pageopacity="0"
     inkscape:pageshadow="2"
     inkscape:window-width="1333"
     inkscape:window-height="742"
     id="namedview8"
     showgrid="false"
     inkscape:zoom="13.320889"
     inkscape:cx="30.935746"
     inkscape:cy="15.668081"
     inkscape:window-x="0"
     inkscape:window-y="0"
     inkscape:window-maximized="1"
     inkscape:current-layer="svg2" />
  <g
     transform="translate(43.315428,-1015.1903)"
     id="g4">
    <path
       style="color:#000000;fill:#000000;fill-opacity:1;fill-rule:nonzero;stroke:none;stroke-width:1.5;marker:none;visibility:visible;display:inline;overflow:visible;enable-background:accumulate"
       d="M 4.6116796,1016.9169 6.8237306e-8,1021.5286 13.104856,1034.6335 6.8237304e-8,1047.7383 4.6116796,1052.35 l 13.1048554,-13.1049 13.104856,13.1049 4.61168,-4.6117 -13.104856,-13.1048 13.104856,-13.1049 -4.61168,-4.6117 -13.104856,13.1049 -13.1048554,-13.1049 z"
       id="path6"
       inkscape:connector-curvature="0" />
  </g>
  <path
     sodipodi:type="arc"
     style="color:#000000;fill:#d4aa00;fill-opacity:1;fill-rule:nonzero;stroke:#1a1a1a;stroke-width:1.50000000000000000;marker:none;visibility:visible;display:inline;overflow:visible;enable-background:accumulate"
     id="path2989"
     sodipodi:cx="6.3058853"
     sodipodi:cy="7.5070066"
     sodipodi:rx="3.9787135"
     sodipodi:ry="3.9787135"
     d="m 10.284599,7.5070066 a 3.9787135,3.9787135 0 1 1 -7.9574272,0 3.9787135,3.9787135 0 1 1 7.9574272,0 z"
     transform="translate(3.5282931,2.327172)" />
  <path
     sodipodi:type="arc"
     style="color:#000000;fill:#2b0000;fill-opacity:1;fill-rule:nonzero;stroke:none;stroke-width:1.50000000000000000;marker:none;visibility:visible;display:inline;overflow:visible;enable-background:accumulate"
     id="path2991"
     sodipodi:cx="22.821301"
     sodipodi:cy="11.33558"
     sodipodi:rx="5.0296946"
     sodipodi:ry="5.0296946"
     d="m 27.850995,11.33558 a 5.0296946,5.0296946 0 1 1 -10.059389,0 5.0296946,5.0296946 0 1 1 10.059389,0 z" />
  <path
     style="color:#000000;fill:#ff0000;stroke:none;stroke-width:3;stroke-linecap:butt;stroke-linejoin:miter;stroke-miterlimit:4;stroke-opacity:1;stroke-dasharray:none;stroke-dashoffset:0;marker:none;visibility:visible;display:inline;overflow:visible;enable-background:accumulate"
     d="m 1.8767517,21.845389 1.201121,-2.101962 c 0,0 6.3058856,4.203924 9.8341783,4.354064 3.528293,0.15014 15.089084,-3.303083 15.089084,-3.303083 0,0 0.67563,0 2.026891,1.726612 1.351262,1.726611 -13.662752,6.080675 -18.617376,4.804484 C 6.4560257,26.049313 1.8767517,21.845389 1.8767517,21.845389 z"
     id="path2993"
     inkscape:connector-curvature="0" />
</svg>
